# xmcd
#
# Track frame offsets:
#	150
#	19134
#	32764
#	50584
#	69139
#	84710
#	101412
#	111960
#	129945
#	149850
#
# Disc length: 2148 seconds
#
# Revision: 0
# Processed by: cddbd v1.5.1PL0 Copyright (c) Steve Scherf et al.
# Submitted via: dBpowerAMP V4.0
#
DISCID=8808620a
DTITLE=Josh Turner - Long Black Train
DYEAR=1900
DGENRE=
TTITLE0=Josh Turner Long Black Train
TTITLE1=TracJosh Turner Good Woman Badk02
TTITLE2=Track03Jacksonville
TTITLE3=Track04Shell Go On You
TTITLE4=What It Ain't
TTITLE5=Track06Backwoods Box
TTITLE6=Dueling Banjo's
TTITLE7=Who's Your Daddy
TTITLE8=American soldier 
TTITLE9=I Love This Bar
EXTD=
EXTT0=
EXTT1=
EXTT2=
EXTT3=
EXTT4=
EXTT5=
EXTT6=
EXTT7=
EXTT8=
EXTT9=
PLAYORDER=
